<svg xmlns="http://www.w3.org/2000/svg" viewBox="0 0 32 32" fill="none">
  <!-- Background: earth-500 rounded square (matches sidebar logo bg) -->
  <rect width="32" height="32" rx="6" fill="#c8822a"/>

  <!-- Folded map icon (scaled from 24→32 viewBox, centered with padding) -->
  <!-- Original paths use 24x24; scale factor ~1.1 centered in 32x32 -->
  <g transform="translate(4, 4) scale(1.0)">
    <path
      d="M9 6.75V15m6-6v8.25m.503 3.498l4.875-2.437c.381-.19.622-.58.622-1.006V4.82c0-.836-.88-1.38-1.628-1.006l-3.869 1.934c-.317.159-.69.159-1.006 0L9.503 3.252a1.125 1.125 0 00-1.006 0L3.622 5.689C3.24 5.88 3 6.27 3 6.695V19.18c0 .836.88 1.38 1.628 1.006l3.869-1.934c.317-.159.69-.159 1.006 0l4.994 2.497c.317.158.69.158 1.006 0z"
      stroke="#f5ede0"
      stroke-width="1.5"
      stroke-linecap="round"
      stroke-linejoin="round"
    />
  </g>
</svg>
